  0
SECTION
  2
HEADER
  9
$EXTMIN
 10
91.897200
 20
44.907200
  9
$EXTMAX
 10
220.395800
 20
145.110200
  9
$LIMMIN
 10
91.897200
 20
44.907200
  9
$LIMMAX
 10
220.395800
 20
145.110200
  9
$FILLMODE
 70
  1
  0
ENDSEC
  0
SECTION
  2
TABLES
  0
TABLE
  2
LTYPE
 70
  1
  0
LTYPE
  2
CONTINUOUS
 70
 64
  3
Solid line
 72
 65
 73
  0
 40
0.0
  0
ENDTAB
  0
TABLE
  2
LAYER
 70
 1
  0
LAYER
  2
0
 70
  0
 62
7
  6
CONTINUOUS
  0
LAYER
  2
grb
 70
  0
 62
1
  6
CONTINUOUS
  0
ENDTAB
  0
TABLE
  2
STYLE
 70
  1
  0
STYLE
  2
STANDARD
 70
  0
 40
0.0
 41
1.0
 50
0.0
 71
  0
 42
0.2
  3
txt
  4

  0
ENDTAB
  0
ENDSEC
  0
SECTION
  2
BLOCKS
  0
BLOCK
  8
0
  2
D11
 70
64
 10
0.0
 20
0.0
  3
D11
  0
CIRCLE
  8
0
 10
0.000000
 20
0.000000
 40
0.050000
 0
ENDBLK
  8
0
  0
ENDSEC
  0
SECTION
  2
ENTITIES
  0
POLYLINE
  8
grb
 62
1
 40
0.000000
 41
0.000000
 66
  1
  0
VERTEX
  8
grb
 10
220.350441
 20
143.500287
  0
VERTEX
  8
grb
 10
220.350441
 20
118.900238
  0
SEQEND
  8
grb
  0
POLYLINE
  8
grb
 62
1
 40
0.000000
 41
0.000000
 66
  1
  0
VERTEX
  8
grb
 10
220.350441
 20
143.500287
  0
VERTEX
  8
grb
 10
220.350441
 20
143.500287
  0
VERTEX
  8
grb
 10
220.350441
 20
143.500287
 42
0.414214
  0
VERTEX
  8
grb
 10
218.800438
 20
145.050290
  0
VERTEX
  8
grb
 10
218.800438
 20
145.050290
  0
SEQEND
  8
grb
  0
POLYLINE
  8
grb
 62
1
 40
0.000000
 41
0.000000
 66
  1
  0
VERTEX
  8
grb
 10
93.500187
 20
145.050290
  0
VERTEX
  8
grb
 10
93.500187
 20
145.050290
  0
VERTEX
  8
grb
 10
93.500187
 20
145.050290
 42
0.414214
  0
VERTEX
  8
grb
 10
91.950184
 20
143.500287
  0
VERTEX
  8
grb
 10
91.950184
 20
143.500287
  0
SEQEND
  8
grb
  0
POLYLINE
  8
grb
 62
1
 40
0.000000
 41
0.000000
 66
  1
  0
VERTEX
  8
grb
 10
218.800438
 20
117.350235
  0
VERTEX
  8
grb
 10
218.800438
 20
117.350235
  0
VERTEX
  8
grb
 10
218.800438
 20
117.350235
 42
0.414214
  0
VERTEX
  8
grb
 10
220.350441
 20
118.900238
  0
VERTEX
  8
grb
 10
220.350441
 20
118.900238
  0
SEQEND
  8
grb
  0
POLYLINE
  8
grb
 62
1
 40
0.000000
 41
0.000000
 66
  1
  0
VERTEX
  8
grb
 10
218.800438
 20
55.300111
  0
VERTEX
  8
grb
 10
218.800438
 20
55.300111
  0
VERTEX
  8
grb
 10
218.800438
 20
55.300111
 42
-0.414214
  0
VERTEX
  8
grb
 10
220.350441
 20
53.750108
  0
VERTEX
  8
grb
 10
220.350441
 20
53.750108
  0
SEQEND
  8
grb
  0
POLYLINE
  8
grb
 62
1
 40
0.000000
 41
0.000000
 66
  1
  0
VERTEX
  8
grb
 10
220.350441
 20
46.500093
  0
VERTEX
  8
grb
 10
220.350441
 20
46.500093
  0
VERTEX
  8
grb
 10
220.350441
 20
46.500093
 42
-0.414214
  0
VERTEX
  8
grb
 10
218.800438
 20
44.950090
  0
VERTEX
  8
grb
 10
218.800438
 20
44.950090
  0
SEQEND
  8
grb
  0
POLYLINE
  8
grb
 62
1
 40
0.000000
 41
0.000000
 66
  1
  0
VERTEX
  8
grb
 10
220.350441
 20
53.750108
  0
VERTEX
  8
grb
 10
220.350441
 20
46.500093
  0
SEQEND
  8
grb
  0
POLYLINE
  8
grb
 62
1
 40
0.000000
 41
0.000000
 66
  1
  0
VERTEX
  8
grb
 10
218.800438
 20
44.950090
  0
VERTEX
  8
grb
 10
175.200350
 20
44.950090
  0
VERTEX
  8
grb
 10
175.200350
 20
44.950090
  0
VERTEX
  8
grb
 10
175.200350
 20
44.950090
 42
-0.414214
  0
VERTEX
  8
grb
 10
173.650347
 20
46.500093
  0
VERTEX
  8
grb
 10
173.650347
 20
46.500093
  0
SEQEND
  8
grb
  0
POLYLINE
  8
grb
 62
1
 40
0.000000
 41
0.000000
 66
  1
  0
VERTEX
  8
grb
 10
100.450201
 20
46.500093
  0
VERTEX
  8
grb
 10
100.450201
 20
46.500093
  0
VERTEX
  8
grb
 10
100.450201
 20
46.500093
 42
-0.414214
  0
VERTEX
  8
grb
 10
98.900198
 20
44.950090
  0
VERTEX
  8
grb
 10
98.900198
 20
44.950090
  0
SEQEND
  8
grb
  0
POLYLINE
  8
grb
 62
1
 40
0.000000
 41
0.000000
 66
  1
  0
VERTEX
  8
grb
 10
93.500187
 20
44.950090
  0
VERTEX
  8
grb
 10
98.900198
 20
44.950090
  0
SEQEND
  8
grb
  0
POLYLINE
  8
grb
 62
1
 40
0.000000
 41
0.000000
 66
  1
  0
VERTEX
  8
grb
 10
93.500187
 20
44.950090
  0
VERTEX
  8
grb
 10
93.500187
 20
44.950090
  0
VERTEX
  8
grb
 10
93.500187
 20
44.950090
 42
-0.414214
  0
VERTEX
  8
grb
 10
91.950184
 20
46.500093
  0
VERTEX
  8
grb
 10
91.950184
 20
46.500093
  0
SEQEND
  8
grb
  0
POLYLINE
  8
grb
 62
1
 40
0.000000
 41
0.000000
 66
  1
  0
VERTEX
  8
grb
 10
91.950184
 20
143.500287
  0
VERTEX
  8
grb
 10
91.950184
 20
132.500265
  0
VERTEX
  8
grb
 10
91.950184
 20
132.500265
  0
VERTEX
  8
grb
 10
91.950184
 20
132.500265
 42
0.414214
  0
VERTEX
  8
grb
 10
94.500189
 20
129.950260
  0
VERTEX
  8
grb
 10
94.500189
 20
129.950260
  0
SEQEND
  8
grb
  0
POLYLINE
  8
grb
 62
1
 40
0.000000
 41
0.000000
 66
  1
  0
VERTEX
  8
grb
 10
91.950184
 20
46.500093
  0
VERTEX
  8
grb
 10
91.950184
 20
113.500227
  0
VERTEX
  8
grb
 10
91.950184
 20
113.500227
  0
VERTEX
  8
grb
 10
91.950184
 20
113.500227
 42
-0.414214
  0
VERTEX
  8
grb
 10
94.500189
 20
116.050232
  0
VERTEX
  8
grb
 10
94.500189
 20
116.050232
  0
SEQEND
  8
grb
  0
POLYLINE
  8
grb
 62
1
 40
0.000000
 41
0.000000
 66
  1
  0
VERTEX
  8
grb
 10
94.500189
 20
129.950260
  0
VERTEX
  8
grb
 10
96.695193
 20
129.950260
  0
SEQEND
  8
grb
  0
POLYLINE
  8
grb
 62
1
 40
0.000000
 41
0.000000
 66
  1
  0
VERTEX
  8
grb
 10
96.700193
 20
116.050232
  0
VERTEX
  8
grb
 10
94.500189
 20
116.050232
  0
SEQEND
  8
grb
  0
POLYLINE
  8
grb
 62
1
 40
0.000000
 41
0.000000
 66
  1
  0
VERTEX
  8
grb
 10
100.450201
 20
55.750112
  0
VERTEX
  8
grb
 10
100.450201
 20
46.500093
  0
SEQEND
  8
grb
  0
POLYLINE
  8
grb
 62
1
 40
0.000000
 41
0.000000
 66
  1
  0
VERTEX
  8
grb
 10
100.450201
 20
55.750112
  0
VERTEX
  8
grb
 10
100.450201
 20
55.750112
  0
VERTEX
  8
grb
 10
100.450201
 20
55.750112
 42
-0.406739
  0
VERTEX
  8
grb
 10
102.400205
 20
57.650115
  0
VERTEX
  8
grb
 10
102.400205
 20
57.650115
  0
SEQEND
  8
grb
  0
POLYLINE
  8
grb
 62
1
 40
0.000000
 41
0.000000
 66
  1
  0
VERTEX
  8
grb
 10
173.650347
 20
55.700111
  0
VERTEX
  8
grb
 10
173.650347
 20
46.500093
  0
SEQEND
  8
grb
  0
POLYLINE
  8
grb
 62
1
 40
0.000000
 41
0.000000
 66
  1
  0
VERTEX
  8
grb
 10
173.650347
 20
55.700111
  0
VERTEX
  8
grb
 10
173.650347
 20
55.700111
  0
VERTEX
  8
grb
 10
173.650347
 20
55.700111
 42
0.414214
  0
VERTEX
  8
grb
 10
171.700343
 20
57.650115
  0
VERTEX
  8
grb
 10
102.400205
 20
57.650115
  0
SEQEND
  8
grb
  0
POLYLINE
  8
grb
 62
1
 40
0.000000
 41
0.000000
 66
  1
  0
VERTEX
  8
grb
 10
208.050416
 20
56.500113
  0
VERTEX
  8
grb
 10
208.050416
 20
56.500113
  0
VERTEX
  8
grb
 10
208.050416
 20
56.500113
 42
0.414214
  0
VERTEX
  8
grb
 10
209.250419
 20
55.300111
  0
VERTEX
  8
grb
 10
209.250419
 20
55.300111
  0
SEQEND
  8
grb
  0
POLYLINE
  8
grb
 62
1
 40
0.000000
 41
0.000000
 66
  1
  0
VERTEX
  8
grb
 10
218.800438
 20
55.300111
  0
VERTEX
  8
grb
 10
209.250419
 20
55.300111
  0
SEQEND
  8
grb
  0
POLYLINE
  8
grb
 62
1
 40
0.000000
 41
0.000000
 66
  1
  0
VERTEX
  8
grb
 10
218.800438
 20
117.350235
  0
VERTEX
  8
grb
 10
209.250419
 20
117.350235
  0
SEQEND
  8
grb
  0
POLYLINE
  8
grb
 62
1
 40
0.000000
 41
0.000000
 66
  1
  0
VERTEX
  8
grb
 10
208.050416
 20
56.500113
  0
VERTEX
  8
grb
 10
208.050416
 20
116.150232
  0
VERTEX
  8
grb
 10
208.050416
 20
116.150232
  0
VERTEX
  8
grb
 10
208.050416
 20
116.150232
 42
-0.414214
  0
VERTEX
  8
grb
 10
209.250419
 20
117.350235
  0
VERTEX
  8
grb
 10
209.250419
 20
117.350235
  0
SEQEND
  8
grb
  0
POLYLINE
  8
grb
 62
1
 40
0.000000
 41
0.000000
 66
  1
  0
VERTEX
  8
grb
 10
101.950204
 20
127.611255
  0
VERTEX
  8
grb
 10
101.950204
 20
127.611255
  0
VERTEX
  8
grb
 10
101.950204
 20
127.611255
 42
0.216562
  0
VERTEX
  8
grb
 10
96.695193
 20
129.950260
  0
VERTEX
  8
grb
 10
96.695193
 20
129.950260
  0
SEQEND
  8
grb
  0
POLYLINE
  8
grb
 62
1
 40
0.000000
 41
0.000000
 66
  1
  0
VERTEX
  8
grb
 10
101.950204
 20
127.611255
  0
VERTEX
  8
grb
 10
101.950204
 20
118.389237
  0
VERTEX
  8
grb
 10
101.950204
 20
118.389237
  0
VERTEX
  8
grb
 10
101.950204
 20
118.389237
 42
-0.216380
  0
VERTEX
  8
grb
 10
96.700193
 20
116.050232
  0
VERTEX
  8
grb
 10
96.700193
 20
116.050232
  0
SEQEND
  8
grb
  0
POLYLINE
  8
grb
 62
1
 40
0.000000
 41
0.000000
 66
  1
  0
VERTEX
  8
grb
 10
218.800438
 20
145.050290
  0
VERTEX
  8
grb
 10
93.500187
 20
145.050290
  0
SEQEND
  8
grb
  0
POLYLINE
  8
grb
 62
1
 40
0.000000
 41
0.000000
 66
  1
  0
VERTEX
  8
grb
 10
217.650435
 20
140.700281
  0
VERTEX
  8
grb
 10
217.650435
 20
140.700281
  0
VERTEX
  8
grb
 10
217.650435
 20
140.700281
 42
-1.000000
  0
VERTEX
  8
grb
 10
214.650429
 20
140.700281
  0
VERTEX
  8
grb
 10
214.650429
 20
140.700281
  0
SEQEND
  8
grb
  0
POLYLINE
  8
grb
 62
1
 40
0.000000
 41
0.000000
 66
  1
  0
VERTEX
  8
grb
 10
214.650429
 20
140.700281
  0
VERTEX
  8
grb
 10
214.650429
 20
140.700281
 42
-1.000000
  0
VERTEX
  8
grb
 10
217.650435
 20
140.700281
  0
VERTEX
  8
grb
 10
217.650435
 20
140.700281
  0
SEQEND
  8
grb
  0
POLYLINE
  8
grb
 62
1
 40
0.000000
 41
0.000000
 66
  1
  0
VERTEX
  8
grb
 10
217.650435
 20
49.300099
  0
VERTEX
  8
grb
 10
217.650435
 20
49.300099
  0
VERTEX
  8
grb
 10
217.650435
 20
49.300099
 42
-1.000000
  0
VERTEX
  8
grb
 10
214.650429
 20
49.300099
  0
VERTEX
  8
grb
 10
214.650429
 20
49.300099
  0
SEQEND
  8
grb
  0
POLYLINE
  8
grb
 62
1
 40
0.000000
 41
0.000000
 66
  1
  0
VERTEX
  8
grb
 10
214.650429
 20
49.300099
  0
VERTEX
  8
grb
 10
214.650429
 20
49.300099
 42
-1.000000
  0
VERTEX
  8
grb
 10
217.650435
 20
49.300099
  0
VERTEX
  8
grb
 10
217.650435
 20
49.300099
  0
SEQEND
  8
grb
  0
POLYLINE
  8
grb
 62
1
 40
0.000000
 41
0.000000
 66
  1
  0
VERTEX
  8
grb
 10
97.650195
 20
49.300099
  0
VERTEX
  8
grb
 10
97.650195
 20
49.300099
  0
VERTEX
  8
grb
 10
97.650195
 20
49.300099
 42
-1.000000
  0
VERTEX
  8
grb
 10
94.650189
 20
49.300099
  0
VERTEX
  8
grb
 10
94.650189
 20
49.300099
  0
SEQEND
  8
grb
  0
POLYLINE
  8
grb
 62
1
 40
0.000000
 41
0.000000
 66
  1
  0
VERTEX
  8
grb
 10
94.650189
 20
49.300099
  0
VERTEX
  8
grb
 10
94.650189
 20
49.300099
 42
-1.000000
  0
VERTEX
  8
grb
 10
97.650195
 20
49.300099
  0
VERTEX
  8
grb
 10
97.650195
 20
49.300099
  0
SEQEND
  8
grb
  0
POLYLINE
  8
grb
 62
1
 40
0.000000
 41
0.000000
 66
  1
  0
VERTEX
  8
grb
 10
97.650195
 20
140.700281
  0
VERTEX
  8
grb
 10
97.650195
 20
140.700281
  0
VERTEX
  8
grb
 10
97.650195
 20
140.700281
 42
-1.000000
  0
VERTEX
  8
grb
 10
94.650189
 20
140.700281
  0
VERTEX
  8
grb
 10
94.650189
 20
140.700281
  0
SEQEND
  8
grb
  0
POLYLINE
  8
grb
 62
1
 40
0.000000
 41
0.000000
 66
  1
  0
VERTEX
  8
grb
 10
94.650189
 20
140.700281
  0
VERTEX
  8
grb
 10
94.650189
 20
140.700281
 42
-1.000000
  0
VERTEX
  8
grb
 10
97.650195
 20
140.700281
  0
VERTEX
  8
grb
 10
97.650195
 20
140.700281
  0
SEQEND
  8
grb
  0
POLYLINE
  8
grb
 62
1
 40
0.000000
 41
0.000000
 66
  1
  0
VERTEX
  8
grb
 10
109.650219
 20
49.000098
  0
VERTEX
  8
grb
 10
109.650219
 20
49.000098
  0
VERTEX
  8
grb
 10
109.650219
 20
49.000098
 42
-1.000000
  0
VERTEX
  8
grb
 10
106.650213
 20
49.000098
  0
VERTEX
  8
grb
 10
106.650213
 20
49.000098
  0
SEQEND
  8
grb
  0
POLYLINE
  8
grb
 62
1
 40
0.000000
 41
0.000000
 66
  1
  0
VERTEX
  8
grb
 10
106.650213
 20
49.000098
  0
VERTEX
  8
grb
 10
106.650213
 20
49.000098
 42
-1.000000
  0
VERTEX
  8
grb
 10
109.650219
 20
49.000098
  0
VERTEX
  8
grb
 10
109.650219
 20
49.000098
  0
SEQEND
  8
grb
  0
POLYLINE
  8
grb
 62
1
 40
0.000000
 41
0.000000
 66
  1
  0
VERTEX
  8
grb
 10
111.650223
 20
49.000098
  0
VERTEX
  8
grb
 10
111.650223
 20
49.000098
  0
VERTEX
  8
grb
 10
111.650223
 20
49.000098
 42
-1.000000
  0
VERTEX
  8
grb
 10
104.650209
 20
49.000098
  0
VERTEX
  8
grb
 10
104.650209
 20
49.000098
  0
SEQEND
  8
grb
  0
POLYLINE
  8
grb
 62
1
 40
0.000000
 41
0.000000
 66
  1
  0
VERTEX
  8
grb
 10
104.650209
 20
49.000098
  0
VERTEX
  8
grb
 10
104.650209
 20
49.000098
 42
-1.000000
  0
VERTEX
  8
grb
 10
111.650223
 20
49.000098
  0
VERTEX
  8
grb
 10
111.650223
 20
49.000098
  0
SEQEND
  8
grb
  0
POLYLINE
  8
grb
 62
1
 40
0.000000
 41
0.000000
 66
  1
  0
VERTEX
  8
grb
 10
119.650239
 20
49.000098
  0
VERTEX
  8
grb
 10
119.650239
 20
49.000098
  0
VERTEX
  8
grb
 10
119.650239
 20
49.000098
 42
-1.000000
  0
VERTEX
  8
grb
 10
116.650233
 20
49.000098
  0
VERTEX
  8
grb
 10
116.650233
 20
49.000098
  0
SEQEND
  8
grb
  0
POLYLINE
  8
grb
 62
1
 40
0.000000
 41
0.000000
 66
  1
  0
VERTEX
  8
grb
 10
116.650233
 20
49.000098
  0
VERTEX
  8
grb
 10
116.650233
 20
49.000098
 42
-1.000000
  0
VERTEX
  8
grb
 10
119.650239
 20
49.000098
  0
VERTEX
  8
grb
 10
119.650239
 20
49.000098
  0
SEQEND
  8
grb
  0
POLYLINE
  8
grb
 62
1
 40
0.000000
 41
0.000000
 66
  1
  0
VERTEX
  8
grb
 10
121.650243
 20
49.000098
  0
VERTEX
  8
grb
 10
121.650243
 20
49.000098
  0
VERTEX
  8
grb
 10
121.650243
 20
49.000098
 42
-1.000000
  0
VERTEX
  8
grb
 10
114.650229
 20
49.000098
  0
VERTEX
  8
grb
 10
114.650229
 20
49.000098
  0
SEQEND
  8
grb
  0
POLYLINE
  8
grb
 62
1
 40
0.000000
 41
0.000000
 66
  1
  0
VERTEX
  8
grb
 10
114.650229
 20
49.000098
  0
VERTEX
  8
grb
 10
114.650229
 20
49.000098
 42
-1.000000
  0
VERTEX
  8
grb
 10
121.650243
 20
49.000098
  0
VERTEX
  8
grb
 10
121.650243
 20
49.000098
  0
SEQEND
  8
grb
  0
POLYLINE
  8
grb
 62
1
 40
0.000000
 41
0.000000
 66
  1
  0
VERTEX
  8
grb
 10
129.650259
 20
49.000098
  0
VERTEX
  8
grb
 10
129.650259
 20
49.000098
  0
VERTEX
  8
grb
 10
129.650259
 20
49.000098
 42
-1.000000
  0
VERTEX
  8
grb
 10
126.650253
 20
49.000098
  0
VERTEX
  8
grb
 10
126.650253
 20
49.000098
  0
SEQEND
  8
grb
  0
POLYLINE
  8
grb
 62
1
 40
0.000000
 41
0.000000
 66
  1
  0
VERTEX
  8
grb
 10
126.650253
 20
49.000098
  0
VERTEX
  8
grb
 10
126.650253
 20
49.000098
 42
-1.000000
  0
VERTEX
  8
grb
 10
129.650259
 20
49.000098
  0
VERTEX
  8
grb
 10
129.650259
 20
49.000098
  0
SEQEND
  8
grb
  0
POLYLINE
  8
grb
 62
1
 40
0.000000
 41
0.000000
 66
  1
  0
VERTEX
  8
grb
 10
131.650263
 20
49.000098
  0
VERTEX
  8
grb
 10
131.650263
 20
49.000098
  0
VERTEX
  8
grb
 10
131.650263
 20
49.000098
 42
-1.000000
  0
VERTEX
  8
grb
 10
124.650249
 20
49.000098
  0
VERTEX
  8
grb
 10
124.650249
 20
49.000098
  0
SEQEND
  8
grb
  0
POLYLINE
  8
grb
 62
1
 40
0.000000
 41
0.000000
 66
  1
  0
VERTEX
  8
grb
 10
124.650249
 20
49.000098
  0
VERTEX
  8
grb
 10
124.650249
 20
49.000098
 42
-1.000000
  0
VERTEX
  8
grb
 10
131.650263
 20
49.000098
  0
VERTEX
  8
grb
 10
131.650263
 20
49.000098
  0
SEQEND
  8
grb
  0
POLYLINE
  8
grb
 62
1
 40
0.000000
 41
0.000000
 66
  1
  0
VERTEX
  8
grb
 10
139.650279
 20
49.000098
  0
VERTEX
  8
grb
 10
139.650279
 20
49.000098
  0
VERTEX
  8
grb
 10
139.650279
 20
49.000098
 42
-1.000000
  0
VERTEX
  8
grb
 10
136.650273
 20
49.000098
  0
VERTEX
  8
grb
 10
136.650273
 20
49.000098
  0
SEQEND
  8
grb
  0
POLYLINE
  8
grb
 62
1
 40
0.000000
 41
0.000000
 66
  1
  0
VERTEX
  8
grb
 10
136.650273
 20
49.000098
  0
VERTEX
  8
grb
 10
136.650273
 20
49.000098
 42
-1.000000
  0
VERTEX
  8
grb
 10
139.650279
 20
49.000098
  0
VERTEX
  8
grb
 10
139.650279
 20
49.000098
  0
SEQEND
  8
grb
  0
POLYLINE
  8
grb
 62
1
 40
0.000000
 41
0.000000
 66
  1
  0
VERTEX
  8
grb
 10
141.650283
 20
49.000098
  0
VERTEX
  8
grb
 10
141.650283
 20
49.000098
  0
VERTEX
  8
grb
 10
141.650283
 20
49.000098
 42
-1.000000
  0
VERTEX
  8
grb
 10
134.650269
 20
49.000098
  0
VERTEX
  8
grb
 10
134.650269
 20
49.000098
  0
SEQEND
  8
grb
  0
POLYLINE
  8
grb
 62
1
 40
0.000000
 41
0.000000
 66
  1
  0
VERTEX
  8
grb
 10
134.650269
 20
49.000098
  0
VERTEX
  8
grb
 10
134.650269
 20
49.000098
 42
-1.000000
  0
VERTEX
  8
grb
 10
141.650283
 20
49.000098
  0
VERTEX
  8
grb
 10
141.650283
 20
49.000098
  0
SEQEND
  8
grb
  0
ENDSEC
  0
EOF
